<?xml version="1.0" encoding="UTF-8" standalone="no"?>
<!-- Created with Inkscape (http://www.inkscape.org/) -->

<svg
   xmlns:dc="http://purl.org/dc/elements/1.1/"
   xmlns:cc="http://creativecommons.org/ns#"
   xmlns:rdf="http://www.w3.org/1999/02/22-rdf-syntax-ns#"
   xmlns:svg="http://www.w3.org/2000/svg"
   xmlns="http://www.w3.org/2000/svg"
   xmlns:sodipodi="http://sodipodi.sourceforge.net/DTD/sodipodi-0.dtd"
   xmlns:inkscape="http://www.inkscape.org/namespaces/inkscape"
   version="1.1"
   width="16"
   height="16"
   id="svg3020"
   xml:space="preserve"
   inkscape:version="0.48.2 r9819"
   sodipodi:docname="trash.svg"><sodipodi:namedview
     pagecolor="#ffffff"
     bordercolor="#666666"
     borderopacity="1"
     objecttolerance="10"
     gridtolerance="10"
     guidetolerance="10"
     inkscape:pageopacity="0"
     inkscape:pageshadow="2"
     inkscape:window-width="1280"
     inkscape:window-height="800"
     id="namedview3089"
     showgrid="true"
     showguides="false"
     inkscape:guide-bbox="true"
     fit-margin-bottom="0"
     fit-margin-top="0"
     fit-margin-left="0"
     fit-margin-right="0"
     inkscape:zoom="25.765203"
     inkscape:cx="9.0742267"
     inkscape:cy="7.2325589"
     inkscape:window-x="0"
     inkscape:window-y="0"
     inkscape:window-maximized="0"
     inkscape:current-layer="svg3020"
     inkscape:snap-global="true"><sodipodi:guide
       orientation="1,0"
       position="-40.57864,-222.93424"
       id="guide3101" /><sodipodi:guide
       orientation="1,0"
       position="63.71961,-111.56493"
       id="guide3103" /><sodipodi:guide
       orientation="0,1"
       position="20.93965,-27.419216"
       id="guide3098" /><sodipodi:guide
       orientation="0,1"
       position="115,-198.28022"
       id="guide3102" /><inkscape:grid
       type="xygrid"
       id="grid3532"
       empspacing="1"
       visible="true"
       enabled="true"
       snapvisiblegridlinesonly="true"
       dotted="false" /></sodipodi:namedview><metadata
     id="metadata3026"><rdf:RDF><cc:Work
         rdf:about=""><dc:format>image/svg+xml</dc:format><dc:type
           rdf:resource="http://purl.org/dc/dcmitype/StillImage" /><dc:title></dc:title></cc:Work></rdf:RDF></metadata><defs
     id="defs3024"><clipPath
   id="clipPath3058"><path
     d="M 0,352 308,352 308,0 0,0 0,352 z"
     id="path3060"
     inkscape:connector-curvature="0" /></clipPath><clipPath
   id="clipPath3074"><path
     d="M 0,352 308,352 308,0 0,0 0,352 z"
     id="path3076"
     inkscape:connector-curvature="0" /></clipPath><clipPath
   id="clipPath3208"><path
     d="M 0,352 308,352 308,0 0,0 0,352 z"
     id="path3210"
     inkscape:connector-curvature="0" /></clipPath>





</defs><path
     style="fill:#ffffff;fill-opacity:1;stroke:none"
     d="m 6,3 0,1 -2,0 0,1 8,0 0,-1 -2,0 0,-1 z m -2,3 0,1 1,0 0,6 6,0 0,-6 1,0 0,-1 z m 2,1 1,0 0,5 -1,0 z m 3,0 1,0 0,5 -1,0 z"
     id="path5908"
     inkscape:connector-curvature="0"
     sodipodi:nodetypes="cccccccccccccccccccccccccccc" /></svg>