<?xml version="1.0" encoding="utf-8"?>
<!-- Generator: Adobe Illustrator 16.0.3, SVG Export Plug-In . SVG Version: 6.00 Build 0)  -->
<!DOCTYPE svg PUBLIC "-//W3C//DTD SVG 1.1//EN" "http://www.w3.org/Graphics/SVG/1.1/DTD/svg11.dtd">
<svg version="1.1" id="Layer_1" xmlns="http://www.w3.org/2000/svg" xmlns:xlink="http://www.w3.org/1999/xlink" x="0px" y="0px"
	 width="270px" height="270px" viewBox="0 0 270 270" enable-background="new 0 0 270 270" xml:space="preserve">
<path fill="#95959D" d="M235,72.74c-7.357,3.264-15.268,5.469-23.566,6.461c8.471-5.078,14.979-13.119,18.041-22.701
	c-7.929,4.703-16.709,8.117-26.057,9.957c-7.484-7.975-18.148-12.957-29.95-12.957c-22.659,0-41.033,18.371-41.033,41.031
	c0,3.216,0.363,6.348,1.062,9.351c-34.102-1.711-64.336-18.047-84.574-42.872c-3.532,6.06-5.556,13.108-5.556,20.628
	c0,14.236,7.622,26.503,18.632,33.861c-6.726-0.213-13.431-1.767-18.963-4.84c-0.004,0.171-0.004,0.343-0.004,0.516
	c0,19.88,14.196,36.554,32.967,40.324c-3.443,0.938-7.258,1-11,1c-2.644,0-4.494-0.521-7-1c5.222,16.301,20.044,28.67,38,29
	c-14.043,11.006-31.775,18-51,18c-3.312,0-6.79-0.62-10-1c18.159,11.644,39.828,19,63,19c75.474,0,116.646-62.988,116.646-117.211
	c0-1.779-0.041-3.548-0.119-5.309C222.543,88.195,229.499,80.969,235,72.74z"/>
</svg>
